<svg version="1.1" id="Layer_1" xmlns="http://www.w3.org/2000/svg" xmlns:xlink="http://www.w3.org/1999/xlink" x="0px" y="0px"
	 width="100%" viewBox="0 0 500 500" enable-background="new 0 0 500 500" xml:space="preserve">
<path fill="#FEC101" opacity="1.000000" stroke="none" 
	d="
M277.000000,501.000000 
	C259.312439,501.000000 241.624878,501.000000 223.736343,500.621155 
	C218.182983,499.167450 212.860992,497.899017 207.472763,497.052277 
	C187.715393,493.947510 168.777939,488.035828 150.520050,480.054657 
	C115.021553,464.537109 84.864616,441.799347 59.718262,412.299713 
	C48.072922,398.638397 38.048981,383.896027 29.653814,368.109467 
	C15.624082,341.727417 6.279929,313.774078 2.917603,283.951141 
	C2.837174,283.237762 1.663671,282.647614 1.000000,282.000000 
	C1.000000,260.979095 1.000000,239.958206 1.353755,218.781891 
	C2.469883,215.363571 3.228264,212.099701 3.995339,208.837906 
	C6.805729,196.887360 8.598533,184.574188 12.690613,173.079712 
	C17.757692,158.846497 24.438646,145.152481 30.952557,131.478073 
	C40.486855,111.463074 54.218857,94.284767 69.381996,78.368835 
	C77.735428,69.600700 87.144440,61.769417 96.530350,54.067562 
	C118.430176,36.097073 143.189224,23.194397 169.909607,13.975144 
	C185.564011,8.573950 201.531036,4.517025 218.069000,2.914704 
	C218.767944,2.846985 219.358795,1.663624 220.000000,0.999998 
	C240.020889,1.000000 260.041779,1.000000 280.210266,1.353693 
	C281.368164,2.136629 282.341217,2.773351 283.394623,2.962502 
	C292.340240,4.568799 301.419800,5.602062 310.232391,7.741495 
	C330.882477,12.754716 350.482605,20.534473 369.278839,30.567369 
	C386.886108,39.965633 403.266083,51.149212 417.791718,64.632690 
	C428.977570,75.015999 439.205505,86.597221 448.782227,98.511574 
	C465.854919,119.751617 478.475403,143.604553 487.163116,169.481613 
	C493.055725,187.033218 497.435516,204.915009 499.078491,223.413254 
	C499.159515,224.325211 500.334442,225.139999 501.000000,226.000000 
	C501.000000,242.687561 501.000000,259.375122 500.645660,276.210449 
	C499.862549,277.368469 499.214447,278.342194 499.039368,279.394623 
	C497.520782,288.522949 496.614502,297.788055 494.522583,306.779022 
	C489.604370,327.917267 482.100098,348.162018 471.944702,367.390106 
	C462.654572,384.979919 451.760895,401.556702 438.186615,416.055603 
	C428.249146,426.670044 417.430511,436.546997 406.353271,445.988403 
	C384.516571,464.600311 359.339081,477.467529 332.395966,486.996368 
	C315.068451,493.124481 297.308807,497.376953 278.968414,499.084808 
	C278.258972,499.150879 277.653778,500.336212 277.000000,501.000000 
M446.709961,366.931458 
	C449.692780,361.376404 452.877106,355.918945 455.623199,350.249237 
	C467.006714,326.746307 474.415527,302.082245 477.075775,275.172699 
	C487.116852,179.045593 436.737793,89.374756 352.553619,47.467400 
	C342.934875,43.411430 333.510468,38.783756 323.652161,35.432495 
	C308.586670,30.311083 293.210663,26.121254 276.291260,24.998236 
	C209.545563,18.537775 150.605087,36.661213 99.344582,81.194176 
	C91.629349,89.208725 83.531219,96.893646 76.284309,105.311386 
	C63.928570,119.663361 53.619022,135.438019 45.322601,153.234207 
	C23.151220,200.599731 17.287149,250.153992 29.261065,300.817963 
	C48.267929,381.239655 97.823044,435.826172 174.807434,465.271454 
	C201.986496,475.667023 230.505890,479.062012 259.602417,478.080170 
	C282.575653,477.304871 304.824036,473.081970 327.169373,465.323730 
	C340.099854,459.289978 353.527496,454.123047 365.861206,447.048920 
	C394.991058,430.341187 419.231049,408.039948 438.610962,379.698425 
	C441.122314,375.583099 443.633698,371.467804 446.709961,366.931458 
z"/>
<path fill="#000000" opacity="1.000000" stroke="none" 
	d="
M277.468628,501.000000 
	C277.653778,500.336212 278.258972,499.150879 278.968414,499.084808 
	C297.308807,497.376953 315.068451,493.124481 332.395966,486.996368 
	C359.339081,477.467529 384.516571,464.600311 406.353271,445.988403 
	C417.430511,436.546997 428.249146,426.670044 438.186615,416.055603 
	C451.760895,401.556702 462.654572,384.979919 471.944702,367.390106 
	C482.100098,348.162018 489.604370,327.917267 494.522583,306.779022 
	C496.614502,297.788055 497.520782,288.522949 499.039368,279.394623 
	C499.214447,278.342194 499.862549,277.368469 500.645660,276.679108 
	C501.000000,351.593689 501.000000,426.187408 501.000000,501.000000 
	C426.645905,501.000000 352.291626,501.000000 277.468628,501.000000 
z"/>
<path fill="#000000" opacity="1.000000" stroke="none" 
	d="
M501.000000,225.531342 
	C500.334442,225.139999 499.159515,224.325211 499.078491,223.413254 
	C497.435516,204.915009 493.055725,187.033218 487.163116,169.481613 
	C478.475403,143.604553 465.854919,119.751617 448.782227,98.511574 
	C439.205505,86.597221 428.977570,75.015999 417.791718,64.632690 
	C403.266083,51.149212 386.886108,39.965633 369.278839,30.567369 
	C350.482605,20.534473 330.882477,12.754716 310.232391,7.741495 
	C301.419800,5.602062 292.340240,4.568799 283.394623,2.962502 
	C282.341217,2.773351 281.368164,2.136629 280.678955,1.353693 
	C354.261200,1.000000 427.522369,1.000000 501.000000,1.000000 
	C501.000000,75.687424 501.000000,150.375046 501.000000,225.531342 
z"/>
<path fill="#000000" opacity="1.000000" stroke="none" 
	d="
M1.000000,282.468658 
	C1.663671,282.647614 2.837174,283.237762 2.917603,283.951141 
	C6.279929,313.774078 15.624082,341.727417 29.653814,368.109467 
	C38.048981,383.896027 48.072922,398.638397 59.718262,412.299713 
	C84.864616,441.799347 115.021553,464.537109 150.520050,480.054657 
	C168.777939,488.035828 187.715393,493.947510 207.472763,497.052277 
	C212.860992,497.899017 218.182983,499.167450 223.267685,500.621155 
	C149.073471,501.000000 75.146927,501.000000 1.000000,501.000000 
	C1.000000,428.312592 1.000000,355.624939 1.000000,282.468658 
z"/>
<path fill="#000000" opacity="1.000000" stroke="none" 
	d="
M219.531342,0.999998 
	C219.358795,1.663624 218.767944,2.846985 218.069000,2.914704 
	C201.531036,4.517025 185.564011,8.573950 169.909607,13.975144 
	C143.189224,23.194397 118.430176,36.097073 96.530350,54.067562 
	C87.144440,61.769417 77.735428,69.600700 69.381996,78.368835 
	C54.218857,94.284767 40.486855,111.463074 30.952557,131.478073 
	C24.438646,145.152481 17.757692,158.846497 12.690613,173.079712 
	C8.598533,184.574188 6.805729,196.887360 3.995339,208.837906 
	C3.228264,212.099701 2.469883,215.363571 1.353755,218.313232 
	C1.000000,145.739288 1.000000,73.478584 1.000000,1.000000 
	C73.687416,1.000000 146.375046,1.000000 219.531342,0.999998 
z"/>
<path fill="#290E58" opacity="1.000000" stroke="none" 
	d="
M326.480438,465.506561 
	C304.824036,473.081970 282.575653,477.304871 259.602417,478.080170 
	C230.505890,479.062012 201.986496,475.667023 174.807434,465.271454 
	C97.823044,435.826172 48.267929,381.239655 29.261065,300.817963 
	C17.287149,250.153992 23.151220,200.599731 45.777046,153.331421 
	C51.120571,159.236435 55.895790,165.145264 60.933510,170.821121 
	C65.235062,175.667557 70.328568,179.875397 74.215103,185.013687 
	C85.523827,199.964615 98.221130,213.625320 111.353333,226.943207 
	C115.417694,231.065079 118.565193,236.131454 122.813919,240.021027 
	C128.319412,245.061188 134.542816,249.304947 134.168121,257.995026 
	C134.140793,258.628632 135.357025,259.315857 136.161652,260.279419 
	C138.656387,264.473114 142.164200,261.174652 145.046814,262.351929 
	C146.450531,264.685944 147.551392,266.921967 149.220474,268.589111 
	C151.151260,270.517731 152.191315,272.350006 150.589188,274.989563 
	C148.124039,275.502167 146.064835,276.011810 143.640320,276.651489 
	C142.515091,276.694458 141.755173,276.607422 140.811661,276.193970 
	C134.351532,276.085114 128.074997,276.302612 121.376740,276.650085 
	C118.017174,276.692566 115.079330,276.605164 111.925873,276.198303 
	C110.748528,275.606537 109.786789,275.334167 108.571335,274.977966 
	C106.410599,277.629364 104.054558,280.165802 102.729866,283.158722 
	C101.537842,285.851929 101.477127,289.045868 100.982254,292.079102 
	C101.047089,292.139282 100.930534,292.272400 101.030884,292.522339 
	C101.425896,292.979126 101.720566,293.186005 102.177719,293.725525 
	C105.214973,294.210419 108.089241,294.482574 110.964577,294.494202 
	C123.121048,294.543396 135.277832,294.515045 147.637878,294.515045 
	C147.388306,298.297058 147.226913,300.743042 147.055908,303.545654 
	C145.771332,306.813538 144.496353,309.724762 142.993439,313.156433 
	C159.528046,313.156433 175.272812,313.156433 191.074814,313.485107 
	C192.757950,315.195404 194.383850,316.576996 195.576508,318.046021 
	C192.329483,318.821533 187.964233,318.640015 186.998093,320.363708 
	C184.296616,325.183441 183.001053,330.791168 180.950638,336.660400 
	C184.119171,336.660400 186.790222,336.310150 189.335938,336.726410 
	C196.812073,337.948853 202.177094,336.074951 204.075500,328.144104 
	C204.987152,330.890228 205.575012,333.459229 209.172043,332.691803 
	C208.646545,335.012451 208.124008,336.922516 207.524475,339.114105 
	C210.056274,339.327209 211.972870,339.488556 214.025040,339.921509 
	C215.405899,341.370972 216.651199,342.548737 218.045288,344.044403 
	C221.554810,348.249847 224.915512,352.137451 228.249573,356.340393 
	C229.399063,356.918579 230.575180,357.181396 231.609650,357.881165 
	C231.313034,359.215240 231.158096,360.112366 230.800156,361.208496 
	C230.460434,361.933594 230.323715,362.459625 230.072113,363.247833 
	C229.921265,363.886597 229.885300,364.263184 229.595673,364.870239 
	C229.022964,366.411713 228.703918,367.722748 228.210052,369.362946 
	C227.458542,371.821472 226.881882,373.950867 226.090149,376.352417 
	C225.636459,377.744385 225.397858,378.864197 225.015198,380.201172 
	C224.840256,380.759186 224.809341,381.100037 224.523529,381.651550 
	C224.011917,382.922607 223.755203,383.982941 223.298523,385.377014 
	C222.359039,388.389404 221.619537,391.068054 220.666656,393.887268 
	C220.404602,394.349060 220.355896,394.670288 220.154724,395.364349 
	C219.476517,397.547882 218.950790,399.358582 218.320679,401.272888 
	C218.216278,401.376495 218.322220,401.650909 218.177490,401.980072 
	C217.776337,403.463501 217.519928,404.617737 217.041565,405.963409 
	C216.418106,407.570526 216.016617,408.986237 215.615112,410.401947 
	C215.903641,410.497253 216.192169,410.592560 216.480682,410.687866 
	C217.360886,409.157379 218.241089,407.626892 219.069656,406.071960 
	C219.018021,406.047485 219.093292,406.133484 219.337311,406.038940 
	C219.697388,405.629761 219.813461,405.315125 220.196625,404.789856 
	C224.044464,399.202301 227.625229,393.825409 231.472534,388.305145 
	C231.874115,387.793823 232.009155,387.425873 232.406708,386.869385 
	C233.892044,384.693939 235.114899,382.707062 236.625336,380.542664 
	C237.116272,379.971924 237.319580,379.578705 237.746231,378.987000 
	C238.680237,377.599762 239.390915,376.410980 240.357544,375.112854 
	C240.754303,374.673126 240.895081,374.342743 241.282074,373.868286 
	C242.008636,373.138336 242.489014,372.552490 243.305969,372.044556 
	C244.758255,373.375031 245.873962,374.627563 247.021667,376.174438 
	C247.074326,376.665039 247.094986,376.861328 247.147827,377.392395 
	C250.101929,380.784424 253.023865,383.841644 256.211334,387.038635 
	C257.005676,387.460876 257.534485,387.743347 258.107361,388.364807 
	C260.092529,390.770905 262.033539,392.837921 264.133057,395.203674 
	C266.501038,397.679016 268.710541,399.855621 270.998108,402.368225 
	C271.283051,403.153229 271.394226,403.688721 271.710510,404.038849 
	C285.018433,418.767731 298.387543,433.441528 311.646637,448.214142 
	C316.718079,453.864410 321.543121,459.735901 326.480438,465.506561 
M172.227463,332.288330 
	C164.795593,332.276367 164.578247,332.510986 162.657928,342.618469 
	C175.749420,343.118652 172.796783,345.042542 176.887329,332.519379 
	C175.553711,332.436310 174.295334,332.357910 172.227463,332.288330 
z"/>
<path fill="#4D13BD" opacity="1.000000" stroke="none" 
	d="
M277.174622,25.174196 
	C293.210663,26.121254 308.586670,30.311083 323.652161,35.432495 
	C333.510468,38.783756 342.934875,43.411430 352.779327,48.136772 
	C357.683258,64.231567 362.446991,79.631882 366.988434,95.097473 
	C368.381989,99.843185 368.956055,104.826019 370.276978,109.597382 
	C372.599060,117.984985 375.241119,126.283531 377.672119,134.641785 
	C378.268677,136.692902 378.499573,138.847488 379.015656,140.925430 
	C381.128204,149.431412 386.146759,156.814636 387.657166,165.707581 
	C389.196289,174.769745 392.621033,183.508850 395.173401,192.402817 
	C396.580353,197.305374 397.904602,202.231857 399.241608,207.154205 
	C400.712677,212.570251 401.988708,218.045853 403.654449,223.400711 
	C405.598969,229.651566 407.873077,235.799866 409.720764,242.010788 
	C409.249146,242.049026 409.060913,242.069138 408.594391,242.045197 
	C407.864990,241.688904 407.413849,241.376663 406.920715,240.691284 
	C405.521362,239.133789 404.300751,237.714783 402.772217,236.824280 
	C400.841125,235.699249 398.649780,235.026154 396.587280,234.120422 
	C392.019928,232.114792 387.462921,230.085602 382.532623,228.042236 
	C379.054535,226.509842 375.911072,225.067856 372.842194,223.481644 
	C354.802948,214.157730 336.792603,204.777786 318.747498,195.465332 
	C311.856079,191.908905 304.898407,188.480988 297.798157,184.765106 
	C297.117035,184.269180 296.608673,184.002670 296.082642,183.358276 
	C292.934418,175.978714 289.861023,168.950760 286.661102,161.980911 
	C280.498352,148.557617 274.250427,135.173462 268.063812,121.761101 
	C263.336151,111.511650 258.648529,101.243752 253.937927,90.576324 
	C254.095215,88.855957 254.005936,87.448570 254.458847,86.245255 
	C259.310211,73.355782 264.303528,60.519669 269.139160,47.624382 
	C271.929626,40.182980 274.503357,32.660297 277.174622,25.174196 
z"/>
<path fill="#250B52" opacity="1.000000" stroke="none" 
	d="
M135.995087,259.978149 
	C135.357025,259.315857 134.140793,258.628632 134.168121,257.995026 
	C134.542816,249.304947 128.319412,245.061188 122.813919,240.021027 
	C118.565193,236.131454 115.417694,231.065079 111.353333,226.943207 
	C98.221130,213.625320 85.523827,199.964615 74.215103,185.013687 
	C70.328568,179.875397 65.235062,175.667557 60.933510,170.821121 
	C55.895790,165.145264 51.120571,159.236435 46.068443,153.121933 
	C53.619022,135.438019 63.928570,119.663361 76.284309,105.311386 
	C83.531219,96.893646 91.629349,89.208725 99.983704,81.234726 
	C101.555763,81.629463 102.539162,81.888367 103.414246,82.351776 
	C123.706909,93.097839 143.970825,103.898300 164.276672,114.619347 
	C178.727646,122.249130 193.175140,129.889771 207.743942,137.289825 
	C212.794556,139.855240 218.205292,141.711639 223.306335,144.257141 
	C222.913116,144.835724 222.560608,144.999329 222.432007,145.269485 
	C214.050858,162.879608 205.687836,180.498367 196.929596,198.104553 
	C192.325119,200.703644 191.715622,204.740753 192.119858,209.148331 
	C192.097687,209.108566 192.188156,209.118881 191.824432,209.138596 
	C189.822372,210.870911 187.284210,212.339172 186.738586,214.348495 
	C185.698486,218.178726 181.167740,221.346893 184.088745,226.342590 
	C183.775650,227.104370 183.454269,227.570953 182.929749,228.223938 
	C182.674316,228.764236 182.621994,229.118164 182.550598,229.491608 
	C182.531540,229.511154 182.546600,229.563644 182.184799,229.479874 
	C180.755005,230.521286 179.391937,231.485382 178.673477,232.801392 
	C176.375061,237.011444 174.502411,241.463226 172.052979,245.576065 
	C171.291718,246.854324 169.234467,248.050018 167.740936,248.086975 
	C160.123672,248.275436 152.491058,247.897064 144.877579,248.143066 
	C143.220306,248.196609 141.619400,249.994003 139.996262,250.994415 
	C140.000000,251.000610 139.987915,250.992081 139.606781,251.017090 
	C138.267868,253.291779 137.310104,255.541458 136.206879,257.790588 
	C136.164322,257.769043 136.267212,257.748047 136.370117,257.727051 
	C136.309387,257.988373 136.248657,258.249725 136.136948,258.877258 
	C136.055679,259.488373 136.025375,259.733276 135.995087,259.978149 
z"/>
<path fill="#4F12C4" opacity="1.000000" stroke="none" 
	d="
M410.004181,241.992676 
	C407.873077,235.799866 405.598969,229.651566 403.654449,223.400711 
	C401.988708,218.045853 400.712677,212.570251 399.241608,207.154205 
	C397.904602,202.231857 396.580353,197.305374 395.173401,192.402817 
	C392.621033,183.508850 389.196289,174.769745 387.657166,165.707581 
	C386.146759,156.814636 381.128204,149.431412 379.015656,140.925430 
	C378.499573,138.847488 378.268677,136.692902 377.672119,134.641785 
	C375.241119,126.283531 372.599060,117.984985 370.276978,109.597382 
	C368.956055,104.826019 368.381989,99.843185 366.988434,95.097473 
	C362.446991,79.631882 357.683258,64.231567 353.002350,48.403446 
	C436.737793,89.374756 487.116852,179.045593 476.580811,275.586853 
	C469.769257,273.242584 463.252991,270.862366 457.175049,267.652222 
	C441.348785,259.293335 425.714844,250.570389 410.004181,241.992676 
z"/>
<path fill="#360D85" opacity="1.000000" stroke="none" 
	d="
M297.970947,184.994507 
	C304.898407,188.480988 311.856079,191.908905 318.747498,195.465332 
	C336.792603,204.777786 354.802948,214.157730 372.842194,223.481644 
	C375.911072,225.067856 379.054535,226.509842 382.634827,228.369812 
	C391.058350,232.835602 399.010529,236.950012 406.962738,241.064438 
	C407.413849,241.376663 407.864990,241.688904 408.625031,242.443787 
	C410.947723,250.371033 412.786163,257.908142 415.007965,265.330475 
	C421.785614,287.972412 428.692291,310.575775 435.586517,333.182648 
	C439.063904,344.585449 442.622955,355.963348 446.145081,367.352509 
	C443.633698,371.467804 441.122314,375.583099 437.872253,379.861511 
	C421.778351,382.051697 406.423157,384.078857 391.035828,385.716248 
	C388.809143,380.001465 386.719421,374.628082 384.309448,369.402344 
	C383.938629,368.598267 382.094635,368.473602 380.966064,368.026062 
	C381.000122,368.017456 380.953949,368.070465 380.984406,367.659485 
	C380.664856,365.494293 380.583221,363.629944 379.916656,362.005646 
	C377.519989,356.164948 375.263092,350.221130 372.248566,344.701172 
	C370.950226,342.323700 371.658447,337.836487 366.850677,337.904602 
	C366.727692,337.836121 366.815552,337.568665 366.864990,337.113342 
	C366.198578,333.844727 365.804199,330.896179 364.690887,328.250122 
	C363.053101,324.357574 360.702362,320.768250 359.009583,316.894928 
	C354.913879,307.523346 351.175873,297.993927 347.005219,288.657043 
	C343.106995,279.930145 339.006500,271.281952 334.629181,262.787689 
	C333.297089,260.202728 330.751160,258.243317 328.698181,255.954010 
	C328.635193,255.910599 328.664978,255.760544 328.744873,255.329407 
	C327.686829,251.829926 326.670685,248.709686 325.389130,245.702560 
	C320.748474,234.813553 316.148926,223.903824 311.283386,213.114868 
	C307.020660,203.662598 302.421478,194.362061 297.970947,184.994507 
z"/>
<path fill="#310F72" opacity="1.000000" stroke="none" 
	d="
M223.451538,143.891876 
	C218.205292,141.711639 212.794556,139.855240 207.743942,137.289825 
	C193.175140,129.889771 178.727646,122.249130 164.276672,114.619347 
	C143.970825,103.898300 123.706909,93.097839 103.414246,82.351776 
	C102.539162,81.888367 101.555763,81.629463 100.301506,81.125595 
	C150.605087,36.661213 209.545563,18.537775 276.732941,25.086216 
	C274.503357,32.660297 271.929626,40.182980 269.139160,47.624382 
	C264.303528,60.519669 259.310211,73.355782 254.458847,86.245255 
	C254.005936,87.448570 254.095215,88.855957 253.710724,90.701477 
	C253.039780,91.495689 252.590851,91.757019 251.988647,91.729980 
	C251.394913,90.755173 250.954422,90.068718 250.182785,88.866203 
	C249.132812,90.926041 248.237686,92.606529 247.409149,94.319237 
	C239.416885,110.840355 231.435806,127.366882 223.451538,143.891876 
z"/>
<path fill="#4B12B8" opacity="1.000000" stroke="none" 
	d="
M391.067963,386.106018 
	C406.423157,384.078857 421.778351,382.051697 437.576355,380.028809 
	C419.231049,408.039948 394.991058,430.341187 365.861206,447.048920 
	C353.527496,454.123047 340.099854,459.289978 326.824890,465.415161 
	C321.543121,459.735901 316.718079,453.864410 311.646637,448.214142 
	C298.387543,433.441528 285.018433,418.767731 271.710510,404.038849 
	C271.394226,403.688721 271.283051,403.153229 271.280823,402.108398 
	C280.954742,400.018372 290.404083,398.380798 299.897705,397.061737 
	C316.459229,394.760681 333.047943,392.655731 349.633179,390.500916 
	C349.641052,390.533173 349.652527,390.598694 349.494568,390.923218 
	C349.934814,392.154938 350.532990,393.062134 351.089722,393.960846 
	C351.048279,393.952393 351.073151,393.871521 351.068237,394.255371 
	C351.598358,395.395874 352.133362,396.152527 352.873413,397.166046 
	C354.995850,401.671295 356.777222,405.990021 358.914398,410.124847 
	C359.545471,411.345825 361.169037,412.845947 362.358673,412.864258 
	C375.128906,413.061432 387.903351,412.987061 401.144562,412.987061 
	C400.367279,410.632965 399.760742,408.795990 399.258789,406.684753 
	C397.771210,403.338928 396.178986,400.267365 394.658661,397.185791 
	C394.730530,397.175751 394.711029,397.319550 394.771973,396.932861 
	C393.605988,394.354706 392.379120,392.163239 391.009460,389.846558 
	C390.866638,389.721313 390.892029,389.342255 390.915161,388.936768 
	C390.981537,387.722839 391.024750,386.914429 391.067963,386.106018 
z"/>
<path fill="#4711B0" opacity="1.000000" stroke="none" 
	d="
M446.427490,367.141968 
	C442.622955,355.963348 439.063904,344.585449 435.586517,333.182648 
	C428.692291,310.575775 421.785614,287.972412 415.007965,265.330475 
	C412.786163,257.908142 410.947723,250.371033 408.903320,242.487839 
	C409.060913,242.069138 409.249146,242.049026 409.720764,242.010788 
	C425.714844,250.570389 441.348785,259.293335 457.175049,267.652222 
	C463.252991,270.862366 469.769257,273.242584 476.472260,276.005554 
	C474.415527,302.082245 467.006714,326.746307 455.623199,350.249237 
	C452.877106,355.918945 449.692780,361.376404 446.427490,367.141968 
z"/>
<path fill="#FCFBFC" opacity="1.000000" stroke="none" 
	d="
M390.892029,389.342255 
	C390.892029,389.342255 390.866638,389.721313 391.049713,390.194580 
	C392.392212,392.885071 393.551636,395.102295 394.711029,397.319550 
	C394.711029,397.319550 394.730530,397.175751 394.730316,397.549957 
	C396.204803,400.935791 397.679504,403.947418 399.154205,406.959015 
	C399.760742,408.795990 400.367279,410.632965 401.144562,412.987061 
	C387.903351,412.987061 375.128906,413.061432 362.358673,412.864258 
	C361.169037,412.845947 359.545471,411.345825 358.914398,410.124847 
	C356.777222,405.990021 354.995850,401.671295 352.771851,396.827637 
	C352.001221,395.445435 351.537201,394.658478 351.073151,393.871521 
	C351.073151,393.871521 351.048279,393.952393 351.063568,393.643951 
	C350.603394,392.423248 350.127960,391.510956 349.652527,390.598694 
	C349.652527,390.598694 349.641052,390.533173 349.655640,390.350037 
	C349.670258,390.166901 349.405426,390.013245 349.353882,389.624634 
	C342.779297,374.824799 336.256256,360.413605 329.687317,345.651154 
	C303.022003,286.911407 276.402588,228.522934 249.309891,169.096344 
	C232.114639,206.035217 215.519424,241.685043 198.577774,278.079132 
	C200.869263,277.959869 202.443039,277.877960 204.378738,277.899414 
	C205.483932,277.936279 206.227219,277.869751 207.399475,277.924866 
	C209.897217,277.965881 211.965988,277.885223 214.351685,277.902252 
	C215.100967,277.934814 215.533310,277.869629 216.340027,277.924103 
	C217.487411,277.964111 218.260422,277.884460 219.490067,277.906921 
	C230.953766,277.941132 241.960815,277.873260 253.397369,277.926727 
	C255.894669,277.962067 257.962494,277.876068 260.315155,277.902283 
	C261.006927,278.041656 261.413818,278.068878 261.770813,278.443726 
	C256.466553,291.525055 251.212234,304.258789 245.736588,317.205994 
	C245.430054,317.812592 245.344849,318.205750 245.236664,318.920349 
	C244.975052,319.837341 244.736374,320.432922 244.347015,321.142303 
	C244.032074,321.465576 243.963577,321.702667 243.987457,322.218018 
	C244.000748,322.634888 244.017471,322.801147 244.325439,323.264587 
	C249.045456,323.722961 253.479782,323.793976 257.901489,324.068542 
	C263.285980,324.402863 268.659821,324.908447 273.916199,325.690552 
	C270.791779,330.348816 267.789429,334.656464 264.435547,338.985046 
	C263.380646,340.284149 262.677338,341.562347 261.705627,343.061676 
	C259.493927,346.466614 257.622803,349.697235 255.592224,352.824371 
	C251.429886,359.234528 247.182037,365.589172 242.969391,371.966644 
	C242.489014,372.552490 242.008636,373.138336 241.050110,374.003784 
	C240.415161,374.596344 240.258377,374.909271 240.101578,375.222229 
	C239.390915,376.410980 238.680237,377.599762 237.428955,379.133240 
	C236.704803,379.892059 236.521271,380.306122 236.337738,380.720184 
	C235.114899,382.707062 233.892044,384.693939 232.160797,387.032776 
	C231.503586,387.739349 231.354782,388.093933 231.205994,388.448517 
	C227.625229,393.825409 224.044464,399.202301 219.983826,404.917664 
	C219.236526,405.487457 219.099640,405.779907 219.093292,406.133484 
	C219.093292,406.133484 219.018021,406.047485 218.606903,405.981262 
	C217.885040,405.867340 217.574280,405.819672 217.263519,405.772003 
	C217.519928,404.617737 217.776337,403.463501 218.363800,402.004944 
	C218.797012,401.634705 218.899185,401.568817 219.001373,401.502930 
	C218.809265,401.391724 218.617157,401.280487 218.425049,401.169281 
	C218.950790,399.358582 219.476517,397.547882 220.340729,395.206604 
	C220.887848,394.396881 220.954788,394.087128 220.880035,393.746704 
	C221.619537,391.068054 222.359039,388.389404 223.613190,385.226990 
	C224.344711,383.642426 224.561554,382.541626 224.778412,381.440857 
	C224.809341,381.100037 224.840256,380.759186 225.240845,380.020935 
	C225.842087,378.442413 226.073669,377.261322 226.305237,376.080261 
	C226.881882,373.950867 227.458542,371.821472 228.537766,369.221741 
	C229.309998,367.380859 229.579681,366.010315 229.849335,364.639801 
	C229.885300,364.263184 229.921265,363.886597 230.276001,363.054199 
	C230.730896,362.068787 230.867020,361.539154 231.003143,361.009491 
	C231.158096,360.112366 231.313034,359.215240 231.764160,357.634979 
	C233.792313,351.299194 235.524246,345.646576 237.361603,339.649872 
	C229.047455,339.649872 221.468460,339.649872 213.889465,339.649872 
	C211.972870,339.488556 210.056274,339.327209 207.524475,339.114105 
	C208.124008,336.922516 208.646545,335.012451 209.147675,332.662140 
	C209.126282,332.221924 209.114929,332.297760 209.378540,332.173859 
	C209.756454,331.696564 209.870758,331.343140 210.231796,330.732117 
	C212.625137,324.821594 214.771729,319.168732 217.054825,313.156433 
	C207.871414,313.156433 199.444489,313.156433 191.017578,313.156433 
	C175.272812,313.156433 159.528046,313.156433 142.993439,313.156433 
	C144.496353,309.724762 145.771332,306.813538 147.330353,303.320862 
	C149.096268,299.647552 150.578171,296.555664 152.317200,292.927307 
	C135.843109,292.927307 119.992760,292.927307 103.826385,292.813141 
	C102.650421,292.556793 101.790474,292.414612 100.930534,292.272400 
	C100.930534,292.272400 101.047089,292.139282 101.108643,291.749329 
	C103.815910,286.459229 106.461632,281.559052 109.485901,276.732727 
	C110.623459,276.710266 111.382477,276.614014 112.141495,276.517731 
	C115.079330,276.605164 118.017174,276.692566 121.778587,276.773560 
	C128.733200,276.684845 134.864227,276.602600 140.995255,276.520325 
	C141.755173,276.607422 142.515091,276.694458 144.076904,276.773529 
	C147.587250,276.681061 150.295700,276.596588 153.454514,276.641327 
	C158.933167,276.696716 163.961487,276.622864 169.354004,276.673248 
	C174.054337,277.193970 174.528214,274.031738 175.208572,270.843689 
	C175.318695,270.729065 175.133270,270.470825 175.458405,270.303162 
	C176.277878,268.815796 176.772232,267.496155 177.222076,266.169434 
	C177.177567,266.162354 177.202957,266.248840 177.518799,266.089417 
	C178.926254,263.789917 180.017853,261.649872 181.340530,259.056763 
	C173.700333,259.056763 166.885422,259.127014 160.072601,259.038483 
	C152.110107,258.934967 144.149399,258.692963 136.187927,258.511047 
	C136.248657,258.249725 136.309387,257.988373 136.370117,257.727051 
	C136.267212,257.748047 136.164322,257.769043 136.474121,257.551208 
	C137.920532,255.205627 138.954224,253.098846 139.987915,250.992081 
	C139.987915,250.992081 140.000000,251.000610 140.463867,250.952866 
	C150.422958,250.898575 159.920364,250.989838 169.411163,250.781174 
	C170.852600,250.749481 172.954269,249.682175 173.572540,248.485336 
	C176.774551,242.286926 179.593872,235.890839 182.546600,229.563644 
	C182.546600,229.563644 182.531540,229.511154 182.739105,229.295563 
	C183.008743,228.732483 183.070801,228.385010 183.132874,228.037537 
	C183.454269,227.570953 183.775650,227.104370 184.355774,226.121552 
	C187.139053,220.109833 189.663605,214.614349 192.188156,209.118881 
	C192.188156,209.118881 192.097687,209.108566 192.404419,208.941254 
	C194.248489,205.221405 195.785843,201.668884 197.323212,198.116348 
	C205.687836,180.498367 214.050858,162.879608 222.432007,145.269485 
	C222.560608,144.999329 222.913116,144.835724 223.306335,144.257126 
	C231.435806,127.366882 239.416885,110.840355 247.409149,94.319237 
	C248.237686,92.606529 249.132812,90.926041 250.182785,88.866203 
	C250.954422,90.068718 251.394913,90.755173 252.021255,92.080315 
	C256.850555,102.674423 261.465454,112.643257 266.143372,122.582451 
	C275.777557,143.052429 285.445435,163.506577 295.148499,184.328766 
	C299.440521,193.862579 303.626038,203.061996 307.939697,212.200928 
	C314.803223,226.741989 321.752136,241.242752 328.664978,255.760544 
	C328.664978,255.760544 328.635193,255.910599 328.712524,256.335205 
	C335.822540,271.923004 342.798401,287.112885 349.906097,302.240814 
	C355.457703,314.056641 361.173004,325.795563 366.815552,337.568665 
	C366.815552,337.568665 366.727692,337.836121 366.859741,338.280762 
	C371.645844,348.507111 376.299896,358.288788 380.953949,368.070465 
	C380.953949,368.070465 381.000122,368.017456 380.990112,368.394470 
	C384.284058,375.628418 387.588043,382.485321 390.892029,389.342255 
z"/>
<path fill="#360D85" opacity="1.000000" stroke="none" 
	d="
M349.405426,390.013245 
	C349.405426,390.013245 349.670258,390.166901 349.647766,390.317749 
	C333.047943,392.655731 316.459229,394.760681 299.897705,397.061737 
	C290.404083,398.380798 280.954742,400.018372 271.202759,401.772400 
	C268.710541,399.855621 266.501038,397.679016 264.075775,394.871704 
	C261.927765,392.169250 259.995514,390.097534 258.063263,388.025787 
	C257.534485,387.743347 257.005676,387.460876 256.167114,386.700989 
	C252.943466,383.168213 250.029556,380.112915 247.115662,377.057617 
	C247.094986,376.861328 247.074326,376.665039 247.006241,375.820740 
	C247.458862,372.530090 247.266525,369.459778 248.586060,367.323273 
	C252.906235,360.328400 257.731140,353.641479 262.451630,346.898926 
	C265.468323,342.589966 269.023956,338.609650 271.621124,334.071716 
	C273.534363,330.728790 277.298309,327.615601 274.841919,322.572235 
	C268.732910,322.018616 262.875549,321.728088 257.015076,321.529419 
	C254.207016,321.434204 251.393066,321.513000 247.902084,321.513000 
	C248.750397,318.298126 249.045547,316.313049 249.787125,314.511749 
	C254.159119,303.892059 258.648376,293.320740 263.062897,282.718445 
	C263.810455,280.922974 265.116577,278.858246 261.820740,278.096130 
	C261.413818,278.068878 261.006927,278.041656 260.186951,277.565521 
	C257.319519,275.511536 254.979370,275.034790 252.967880,277.805420 
	C241.960815,277.873260 230.953766,277.941132 219.408875,277.614105 
	C217.902603,277.414307 216.934128,277.609375 215.965668,277.804474 
	C215.533310,277.869629 215.100967,277.934814 214.222076,277.565308 
	C211.325455,275.516022 208.986465,275.025635 206.970490,277.803223 
	C206.227219,277.869751 205.483932,277.936279 204.378098,277.514160 
	C202.267731,271.257660 206.185669,267.048462 208.219208,262.400085 
	C210.982895,256.082764 214.219772,249.973145 217.227264,243.761642 
	C221.398224,235.147141 225.502823,226.500244 229.717361,217.907181 
	C232.231003,212.782074 235.156281,207.845291 237.440018,202.624176 
	C240.816849,194.904099 243.737946,186.985535 247.000519,179.213364 
	C247.368683,178.336273 248.702866,177.328232 249.562790,177.351547 
	C250.353317,177.372986 251.417053,178.567551 251.822327,179.483383 
	C253.145294,182.473160 254.053741,185.649658 255.423294,188.614990 
	C261.389191,201.532211 267.487671,214.388138 273.483337,227.291718 
	C276.045593,232.806107 278.490662,238.375305 280.959351,243.932755 
	C283.664337,250.022263 286.246368,256.168030 289.044373,262.214142 
	C292.256897,269.156036 295.709259,275.986694 298.943604,282.918793 
	C302.202240,289.903137 305.432892,296.905243 308.445007,303.997559 
	C309.611816,306.744873 310.145477,309.761047 310.967590,312.654755 
	C311.444397,314.142731 313.614532,315.107605 314.535095,316.766113 
	C316.106781,319.597595 316.598694,323.014282 318.071014,325.917938 
	C321.518402,332.716705 325.277924,339.357208 328.939941,346.450745 
	C329.078278,347.661682 329.002350,348.565857 329.324951,349.293304 
	C334.310669,360.536743 339.253540,371.801270 344.444672,382.949982 
	C345.640228,385.517670 347.728149,387.669861 349.405426,390.013245 
z"/>
<path fill="#250B52" opacity="1.000000" stroke="none" 
	d="
M168.989792,276.549011 
	C163.961487,276.622864 158.933167,276.696716 153.360214,276.383911 
	C152.208740,275.660370 151.601929,275.323486 150.995117,274.986572 
	C152.191315,272.350006 151.151260,270.517731 149.220474,268.589111 
	C147.551392,266.921967 146.450531,264.685944 145.459290,262.280823 
	C156.015640,261.860260 166.211212,261.860260 176.671707,261.860260 
	C176.850189,263.334686 177.026581,264.791779 177.202957,266.248840 
	C177.202957,266.248840 177.177567,266.162354 176.832809,266.220764 
	C176.036453,267.676361 175.584869,269.073608 175.133270,270.470825 
	C175.133270,270.470825 175.318695,270.729065 174.885101,270.987122 
	C172.630936,273.013123 170.810364,274.781067 168.989792,276.549011 
z"/>
<path fill="#F1EEF3" opacity="1.000000" stroke="none" 
	d="
M203.810760,327.893494 
	C202.177094,336.074951 196.812073,337.948853 189.335938,336.726410 
	C186.790222,336.310150 184.119171,336.660400 180.950638,336.660400 
	C183.001053,330.791168 184.296616,325.183441 186.998093,320.363708 
	C187.964233,318.640015 192.329483,318.821533 196.013855,318.156555 
	C200.037628,318.179688 203.190811,318.179688 206.816116,318.179688 
	C205.616318,322.057648 204.713547,324.975555 203.810760,327.893494 
z"/>
<path fill="#3B1978" opacity="1.000000" stroke="none" 
	d="
M204.075500,328.144104 
	C204.713547,324.975555 205.616318,322.057648 206.816116,318.179688 
	C203.190811,318.179688 200.037628,318.179688 196.447083,318.069153 
	C194.383850,316.576996 192.757950,315.195404 191.074814,313.485107 
	C199.444489,313.156433 207.871414,313.156433 217.054825,313.156433 
	C214.771729,319.168732 212.625137,324.821594 210.032288,330.908569 
	C209.429016,331.661041 209.271988,331.979401 209.114929,332.297760 
	C209.114929,332.297760 209.126282,332.221924 209.150635,332.251587 
	C205.575012,333.459229 204.987152,330.890228 204.075500,328.144104 
z"/>
<path fill="#422479" opacity="1.000000" stroke="none" 
	d="
M275.092285,322.873016 
	C277.298309,327.615601 273.534363,330.728790 271.621124,334.071716 
	C269.023956,338.609650 265.468323,342.589966 262.451630,346.898926 
	C257.731140,353.641479 252.906235,360.328400 248.586060,367.323273 
	C247.266525,369.459778 247.458862,372.530090 246.974243,375.526428 
	C245.873962,374.627563 244.758255,373.375031 243.305969,372.044556 
	C247.182037,365.589172 251.429886,359.234528 255.592224,352.824371 
	C257.622803,349.697235 259.493927,346.466614 262.009644,342.987366 
	C263.317078,341.449310 264.052094,340.206726 264.787109,338.964142 
	C267.789429,334.656464 270.791779,330.348816 274.169098,325.573792 
	C274.680725,324.422760 274.817352,323.739136 274.989441,323.010529 
	C275.024841,322.965546 275.092285,322.873016 275.092285,322.873016 
z"/>
<path fill="#350D81" opacity="1.000000" stroke="none" 
	d="
M228.276215,356.025024 
	C224.915512,352.137451 221.554810,348.249847 218.193573,343.698914 
	C222.181870,342.362305 226.161469,341.353729 230.165848,341.243347 
	C231.213303,341.214508 233.537048,344.355347 233.210892,345.389862 
	C232.045578,349.086121 229.993057,352.502655 228.276215,356.025024 
z"/>
<path fill="#EAE5EE" opacity="1.000000" stroke="none" 
	d="
M172.632217,332.283936 
	C174.295334,332.357910 175.553711,332.436310 176.887329,332.519379 
	C172.796783,345.042542 175.749420,343.118652 162.657928,342.618469 
	C164.578247,332.510986 164.795593,332.276367 172.632217,332.283936 
z"/>
<path fill="#241246" opacity="1.000000" stroke="none" 
	d="
M177.518799,266.089417 
	C177.026581,264.791779 176.850189,263.334686 176.671707,261.860260 
	C166.211212,261.860260 156.015640,261.860260 145.407593,261.931335 
	C142.164200,261.174652 138.656387,264.473114 136.161652,260.279419 
	C136.025375,259.733276 136.055679,259.488373 136.136948,258.877258 
	C144.149399,258.692963 152.110107,258.934967 160.072601,259.038483 
	C166.885422,259.127014 173.700333,259.056763 181.340530,259.056763 
	C180.017853,261.649872 178.926254,263.789917 177.518799,266.089417 
z"/>
<path fill="#543A7E" opacity="1.000000" stroke="none" 
	d="
M228.249573,356.340393 
	C229.993057,352.502655 232.045578,349.086121 233.210892,345.389862 
	C233.537048,344.355347 231.213303,341.214508 230.165848,341.243347 
	C226.161469,341.353729 222.181870,342.362305 218.044754,343.381042 
	C216.651199,342.548737 215.405899,341.370972 214.025040,339.921509 
	C221.468460,339.649872 229.047455,339.649872 237.361603,339.649872 
	C235.524246,345.646576 233.792313,351.299194 231.905838,357.197998 
	C230.575180,357.181396 229.399063,356.918579 228.249573,356.340393 
z"/>
<path fill="#281748" opacity="1.000000" stroke="none" 
	d="
M104.142418,292.927307 
	C119.992760,292.927307 135.843109,292.927307 152.317200,292.927307 
	C150.578171,296.555664 149.096268,299.647552 147.339935,302.964233 
	C147.226913,300.743042 147.388306,298.297058 147.637878,294.515045 
	C135.277832,294.515045 123.121048,294.543396 110.964577,294.494202 
	C108.089241,294.482574 105.214973,294.210419 102.536285,293.664032 
	C103.202385,293.155731 103.672401,293.041504 104.142418,292.927307 
z"/>
<path fill="#433463" opacity="1.000000" stroke="none" 
	d="
M109.107361,276.658875 
	C106.461632,281.559052 103.815910,286.459229 101.043800,291.689148 
	C101.477127,289.045868 101.537842,285.851929 102.729866,283.158722 
	C104.054558,280.165802 106.410599,277.629364 108.665024,275.373108 
	C109.044090,276.121002 109.075729,276.389923 109.107361,276.658875 
z"/>
<path fill="#241246" opacity="1.000000" stroke="none" 
	d="
M140.811661,276.193970 
	C134.864227,276.602600 128.733200,276.684845 122.200317,276.643616 
	C128.074997,276.302612 134.351532,276.085114 140.811661,276.193970 
z"/>
<path fill="#422479" opacity="1.000000" stroke="none" 
	d="
M247.147827,377.392395 
	C250.029556,380.112915 252.943466,383.168213 255.901581,386.561188 
	C253.023865,383.841644 250.101929,380.784424 247.147827,377.392395 
z"/>
<path fill="#241246" opacity="1.000000" stroke="none" 
	d="
M150.589188,274.989563 
	C151.601929,275.323486 152.208740,275.660370 152.909866,276.254669 
	C150.295700,276.596588 147.587250,276.681061 144.442200,276.643494 
	C146.064835,276.011810 148.124039,275.502167 150.589188,274.989563 
z"/>
<path fill="#422479" opacity="1.000000" stroke="none" 
	d="
M258.107361,388.364807 
	C259.995514,390.097534 261.927765,392.169250 263.917297,394.572998 
	C262.033539,392.837921 260.092529,390.770905 258.107361,388.364807 
z"/>
<path fill="#E7E1EB" opacity="1.000000" stroke="none" 
	d="
M217.041565,405.963409 
	C217.574280,405.819672 217.885040,405.867340 218.658539,406.005707 
	C218.241089,407.626892 217.360886,409.157379 216.480682,410.687866 
	C216.192169,410.592560 215.903641,410.497253 215.615112,410.401947 
	C216.016617,408.986237 216.418106,407.570526 217.041565,405.963409 
z"/>
<path fill="#ECE9F0" opacity="1.000000" stroke="none" 
	d="
M229.595673,364.870239 
	C229.579681,366.010315 229.309998,367.380859 228.712616,368.892578 
	C228.703918,367.722748 229.022964,366.411713 229.595673,364.870239 
z"/>
<path fill="#ECE9F0" opacity="1.000000" stroke="none" 
	d="
M226.090149,376.352417 
	C226.073669,377.261322 225.842087,378.442413 225.384888,379.803741 
	C225.397858,378.864197 225.636459,377.744385 226.090149,376.352417 
z"/>
<path fill="#ECE9F0" opacity="1.000000" stroke="none" 
	d="
M224.523499,381.651550 
	C224.561554,382.541626 224.344711,383.642426 223.813171,384.893250 
	C223.755203,383.982941 224.011917,382.922607 224.523499,381.651550 
z"/>
<path fill="#433463" opacity="1.000000" stroke="none" 
	d="
M103.826385,292.813141 
	C103.672401,293.041504 103.202385,293.155731 102.373802,293.331421 
	C101.720566,293.186005 101.425896,292.979126 101.030884,292.522339 
	C101.790474,292.414612 102.650421,292.556793 103.826385,292.813141 
z"/>
<path fill="#241246" opacity="1.000000" stroke="none" 
	d="
M109.485901,276.732727 
	C109.075729,276.389923 109.044090,276.121002 108.918747,275.456909 
	C109.786789,275.334167 110.748528,275.606537 111.925873,276.198303 
	C111.382477,276.614014 110.623459,276.710266 109.485901,276.732727 
z"/>
<path fill="#ECE9F0" opacity="1.000000" stroke="none" 
	d="
M230.800140,361.208496 
	C230.867020,361.539154 230.730896,362.068787 230.390869,362.792053 
	C230.323715,362.459625 230.460434,361.933594 230.800140,361.208496 
z"/>
<path fill="#E7E1EB" opacity="1.000000" stroke="none" 
	d="
M218.320663,401.272888 
	C218.617157,401.280487 218.809265,401.391724 219.001373,401.502930 
	C218.899185,401.568817 218.797012,401.634705 218.508530,401.675781 
	C218.322220,401.650909 218.216278,401.376495 218.320663,401.272888 
z"/>
<path fill="#E7E1EB" opacity="1.000000" stroke="none" 
	d="
M236.625336,380.542664 
	C236.521271,380.306122 236.704803,379.892059 237.205627,379.331726 
	C237.319580,379.578705 237.116272,379.971924 236.625336,380.542664 
z"/>
<path fill="#E7E1EB" opacity="1.000000" stroke="none" 
	d="
M219.337311,406.038940 
	C219.099640,405.779907 219.236526,405.487457 219.716736,405.128296 
	C219.813461,405.315125 219.697388,405.629761 219.337311,406.038940 
z"/>
<path fill="#E7E1EB" opacity="1.000000" stroke="none" 
	d="
M220.666656,393.887268 
	C220.954788,394.087128 220.887848,394.396881 220.493195,394.833771 
	C220.355896,394.670288 220.404602,394.349060 220.666656,393.887268 
z"/>
<path fill="#E7E1EB" opacity="1.000000" stroke="none" 
	d="
M231.472534,388.305145 
	C231.354782,388.093933 231.503586,387.739349 231.898285,387.221375 
	C232.009155,387.425873 231.874115,387.793823 231.472534,388.305145 
z"/>
<path fill="#E7E1EB" opacity="1.000000" stroke="none" 
	d="
M240.357544,375.112854 
	C240.258377,374.909271 240.415161,374.596344 240.803925,374.147888 
	C240.895081,374.342743 240.754303,374.673126 240.357544,375.112854 
z"/>
<path fill="#572FA0" opacity="1.000000" stroke="none" 
	d="
M295.099457,183.967239 
	C285.445435,163.506577 275.777557,143.052429 266.143372,122.582451 
	C261.465454,112.643257 256.850555,102.674423 252.174500,92.368683 
	C252.590851,91.757019 253.039780,91.495689 253.715897,91.109207 
	C258.648529,101.243752 263.336151,111.511650 268.063812,121.761101 
	C274.250427,135.173462 280.498352,148.557617 286.661102,161.980911 
	C289.861023,168.950760 292.934418,175.978714 295.838074,183.443115 
	C295.440552,183.926285 295.269989,183.946762 295.099457,183.967239 
z"/>
<path fill="#432677" opacity="1.000000" stroke="none" 
	d="
M295.148499,184.328766 
	C295.269989,183.946762 295.440552,183.926285 295.855713,183.820969 
	C296.608673,184.002670 297.117035,184.269180 297.798157,184.765091 
	C302.421478,194.362061 307.020660,203.662598 311.283386,213.114868 
	C316.148926,223.903824 320.748474,234.813553 325.389130,245.702560 
	C326.670685,248.709686 327.686829,251.829926 328.744873,255.329407 
	C321.752136,241.242752 314.803223,226.741989 307.939697,212.200928 
	C303.626038,203.061996 299.440521,193.862579 295.148499,184.328766 
z"/>
<path fill="#4711B0" opacity="1.000000" stroke="none" 
	d="
M406.920715,240.691284 
	C399.010529,236.950012 391.058350,232.835602 383.003906,228.393600 
	C387.462921,230.085602 392.019928,232.114792 396.587280,234.120422 
	C398.649780,235.026154 400.841125,235.699249 402.772217,236.824280 
	C404.300751,237.714783 405.521362,239.133789 406.920715,240.691284 
z"/>
<path fill="#241246" opacity="1.000000" stroke="none" 
	d="
M182.184799,229.479874 
	C179.593872,235.890839 176.774551,242.286926 173.572540,248.485336 
	C172.954269,249.682175 170.852600,250.749481 169.411163,250.781174 
	C159.920364,250.989838 150.422958,250.898575 140.460114,250.946686 
	C141.619400,249.994003 143.220306,248.196609 144.877579,248.143066 
	C152.491058,247.897064 160.123672,248.275436 167.740936,248.086975 
	C169.234467,248.050018 171.291718,246.854324 172.052979,245.576065 
	C174.502411,241.463226 176.375061,237.011444 178.673477,232.801392 
	C179.391937,231.485382 180.755005,230.521286 182.184799,229.479874 
z"/>
<path fill="#241246" opacity="1.000000" stroke="none" 
	d="
M191.824432,209.138596 
	C189.663605,214.614349 187.139053,220.109833 184.347473,225.826370 
	C181.167740,221.346893 185.698486,218.178726 186.738586,214.348495 
	C187.284210,212.339172 189.822372,210.870911 191.824432,209.138596 
z"/>
<path fill="#241246" opacity="1.000000" stroke="none" 
	d="
M196.929596,198.104553 
	C195.785843,201.668884 194.248489,205.221405 192.426575,208.981018 
	C191.715622,204.740753 192.325119,200.703644 196.929596,198.104553 
z"/>
<path fill="#241246" opacity="1.000000" stroke="none" 
	d="
M139.606781,251.017090 
	C138.954224,253.098846 137.920532,255.205627 136.619598,257.551758 
	C137.310104,255.541458 138.267868,253.291779 139.606781,251.017090 
z"/>
<path fill="#241246" opacity="1.000000" stroke="none" 
	d="
M182.929749,228.223938 
	C183.070801,228.385010 183.008743,228.732483 182.758179,229.276016 
	C182.621994,229.118164 182.674316,228.764236 182.929749,228.223938 
z"/>
<path fill="#432677" opacity="1.000000" stroke="none" 
	d="
M366.864990,337.113342 
	C361.173004,325.795563 355.457703,314.056641 349.906097,302.240814 
	C342.798401,287.112885 335.822540,271.923004 328.775513,256.378601 
	C330.751160,258.243317 333.297089,260.202728 334.629181,262.787689 
	C339.006500,271.281952 343.106995,279.930145 347.005219,288.657043 
	C351.175873,297.993927 354.913879,307.523346 359.009583,316.894928 
	C360.702362,320.768250 363.053101,324.357574 364.690887,328.250122 
	C365.804199,330.896179 366.198578,333.844727 366.864990,337.113342 
z"/>
<path fill="#432677" opacity="1.000000" stroke="none" 
	d="
M380.984406,367.659485 
	C376.299896,358.288788 371.645844,348.507111 366.982727,338.349243 
	C371.658447,337.836487 370.950226,342.323700 372.248566,344.701172 
	C375.263092,350.221130 377.519989,356.164948 379.916656,362.005646 
	C380.583221,363.629944 380.664856,365.494293 380.984406,367.659485 
z"/>
<path fill="#432677" opacity="1.000000" stroke="none" 
	d="
M390.915161,388.936768 
	C387.588043,382.485321 384.284058,375.628418 380.956024,368.403076 
	C382.094635,368.473602 383.938629,368.598267 384.309448,369.402344 
	C386.719421,374.628082 388.809143,380.001465 391.035828,385.716248 
	C391.024750,386.914429 390.981537,387.722839 390.915161,388.936768 
z"/>
<path fill="#432677" opacity="1.000000" stroke="none" 
	d="
M399.258789,406.684753 
	C397.679504,403.947418 396.204803,400.935791 394.658447,397.559998 
	C396.178986,400.267365 397.771210,403.338928 399.258789,406.684753 
z"/>
<path fill="#432677" opacity="1.000000" stroke="none" 
	d="
M394.771973,396.932861 
	C393.551636,395.102295 392.392212,392.885071 391.192505,390.319824 
	C392.379120,392.163239 393.605988,394.354706 394.771973,396.932861 
z"/>
<path fill="#422575" opacity="1.000000" stroke="none" 
	d="
M349.494568,390.923218 
	C350.127960,391.510956 350.603394,392.423248 351.105011,393.652405 
	C350.532990,393.062134 349.934814,392.154938 349.494568,390.923218 
z"/>
<path fill="#422575" opacity="1.000000" stroke="none" 
	d="
M351.068237,394.255371 
	C351.537201,394.658478 352.001221,395.445435 352.566772,396.570801 
	C352.133362,396.152527 351.598358,395.395874 351.068237,394.255371 
z"/>
<path fill="#422479" opacity="1.000000" stroke="none" 
	d="
M328.911072,346.061768 
	C325.277924,339.357208 321.518402,332.716705 318.071014,325.917938 
	C316.598694,323.014282 316.106781,319.597595 314.535095,316.766113 
	C313.614532,315.107605 311.444397,314.142731 310.967590,312.654755 
	C310.145477,309.761047 309.611816,306.744873 308.445007,303.997559 
	C305.432892,296.905243 302.202240,289.903137 298.943604,282.918793 
	C295.709259,275.986694 292.256897,269.156036 289.044373,262.214142 
	C286.246368,256.168030 283.664337,250.022263 280.959351,243.932755 
	C278.490662,238.375305 276.045593,232.806107 273.483337,227.291718 
	C267.487671,214.388138 261.389191,201.532211 255.423294,188.614990 
	C254.053741,185.649658 253.145294,182.473160 251.822327,179.483383 
	C251.417053,178.567551 250.353317,177.372986 249.562790,177.351547 
	C248.702866,177.328232 247.368683,178.336273 247.000519,179.213364 
	C243.737946,186.985535 240.816849,194.904099 237.440018,202.624176 
	C235.156281,207.845291 232.231003,212.782074 229.717361,217.907181 
	C225.502823,226.500244 221.398224,235.147141 217.227264,243.761642 
	C214.219772,249.973145 210.982895,256.082764 208.219208,262.400085 
	C206.185669,267.048462 202.267731,271.257660 204.016174,277.410767 
	C202.443039,277.877960 200.869263,277.959869 198.577774,278.079132 
	C215.519424,241.685043 232.114639,206.035217 249.309891,169.096344 
	C276.402588,228.522934 303.022003,286.911407 329.481506,345.662415 
	C329.321625,346.024902 328.911072,346.061768 328.911072,346.061768 
z"/>
<path fill="#422479" opacity="1.000000" stroke="none" 
	d="
M261.770813,278.443726 
	C265.116577,278.858246 263.810455,280.922974 263.062897,282.718445 
	C258.648376,293.320740 254.159119,303.892059 249.787125,314.511749 
	C249.045547,316.313049 248.750397,318.298126 247.902084,321.513000 
	C251.393066,321.513000 254.207016,321.434204 257.015076,321.529419 
	C262.875549,321.728088 268.732910,322.018616 274.841919,322.572235 
	C275.092285,322.873016 275.024841,322.965546 274.524323,323.037598 
	C264.027252,323.062195 254.030716,323.014801 244.034180,322.967407 
	C244.017471,322.801147 244.000748,322.634888 244.183411,322.136902 
	C244.631287,321.577423 244.669586,321.318512 244.497696,321.028473 
	C244.736374,320.432922 244.975052,319.837341 245.476929,318.718079 
	C245.812714,317.793732 245.885315,317.393127 245.957916,316.992493 
	C251.212234,304.258789 256.466553,291.525055 261.770813,278.443726 
z"/>
<path fill="#422575" opacity="1.000000" stroke="none" 
	d="
M328.939941,346.450745 
	C328.911072,346.061768 329.321625,346.024902 329.527405,346.013672 
	C336.256256,360.413605 342.779297,374.824799 349.353882,389.624634 
	C347.728149,387.669861 345.640228,385.517670 344.444672,382.949982 
	C339.253540,371.801270 334.310669,360.536743 329.324951,349.293304 
	C329.002350,348.565857 329.078278,347.661682 328.939941,346.450745 
z"/>
<path fill="#EAE0F2" opacity="1.000000" stroke="none" 
	d="
M244.325439,323.264587 
	C254.030716,323.014801 264.027252,323.062195 274.488892,323.082581 
	C274.817352,323.739136 274.680725,324.422760 274.291168,325.223175 
	C268.659821,324.908447 263.285980,324.402863 257.901489,324.068542 
	C253.479782,323.793976 249.045456,323.722961 244.325439,323.264587 
z"/>
<path fill="#241246" opacity="1.000000" stroke="none" 
	d="
M169.354004,276.673218 
	C170.810364,274.781067 172.630936,273.013123 174.774979,271.101746 
	C174.528214,274.031738 174.054337,277.193970 169.354004,276.673218 
z"/>
<path fill="#422479" opacity="1.000000" stroke="none" 
	d="
M253.397369,277.926727 
	C254.979370,275.034790 257.319519,275.511536 259.902100,277.453369 
	C257.962494,277.876068 255.894669,277.962067 253.397369,277.926727 
z"/>
<path fill="#422479" opacity="1.000000" stroke="none" 
	d="
M207.399475,277.924896 
	C208.986465,275.025635 211.325455,275.516022 213.905151,277.467590 
	C211.965988,277.885223 209.897217,277.965881 207.399475,277.924896 
z"/>
<path fill="#EAE0F2" opacity="1.000000" stroke="none" 
	d="
M264.435547,338.985046 
	C264.052094,340.206726 263.317078,341.449310 262.278046,342.766205 
	C262.677338,341.562347 263.380646,340.284149 264.435547,338.985046 
z"/>
<path fill="#422479" opacity="1.000000" stroke="none" 
	d="
M216.340027,277.924103 
	C216.934128,277.609375 217.902603,277.414307 218.952240,277.512024 
	C218.260422,277.884460 217.487411,277.964111 216.340027,277.924103 
z"/>
<path fill="#241246" opacity="1.000000" stroke="none" 
	d="
M175.458405,270.303162 
	C175.584869,269.073608 176.036453,267.676361 176.877319,266.227814 
	C176.772232,267.496155 176.277878,268.815796 175.458405,270.303162 
z"/>
<path fill="#290E58" opacity="1.000000" stroke="none" 
	d="
M209.378540,332.173859 
	C209.271988,331.979401 209.429016,331.661041 209.785553,331.166199 
	C209.870758,331.343140 209.756454,331.696564 209.378540,332.173859 
z"/>
<path fill="#EAE0F2" opacity="1.000000" stroke="none" 
	d="
M245.736603,317.205994 
	C245.885315,317.393127 245.812714,317.793732 245.499878,318.396606 
	C245.344849,318.205750 245.430054,317.812592 245.736603,317.205994 
z"/>
<path fill="#EAE0F2" opacity="1.000000" stroke="none" 
	d="
M244.347015,321.142303 
	C244.669586,321.318512 244.631287,321.577423 244.186813,321.886322 
	C243.963577,321.702667 244.032074,321.465576 244.347015,321.142303 
z"/>
</svg>